{"title":"The Amazing Spiderman 2012 HDTS XviD Feel-Free","uid":7642970,"size":1406496024,"categoryP":"video","categoryS":"movies","magnet":"?xt=urn:btih:b038b367f6393b58a1b42597e79118c5b923649f&amp;dn=The+Amazing+Spiderman+2012+HDTS+XviD+Feel-Free&amp;tr=udp%3A%2F%2Ftracker.openbittorrent.com%3A80&amp;tr=udp%3A%2F%2Fopen.demonii.com%3A1337&amp;tr=udp%3A%2F%2Ftracker.coppersurfer.tk%3A6969&amp;tr=udp%3A%2F%2Fexodus.desync.com%3A6969","seeders":1,"leechers":0,"uploader":"Gh0stNet","files":11,"time":1347827647,"description":"Genre:Action | Adventure | Fantasy\nLanguage:English\nIMDb:http://www.imdb.com/title/tt0948470/\nSource:R6 720p/ADTRGThanks!\nEncoder:Tony\n\nFormat : AVI\nFormat/Info : Audio Video Interleave\nFile size : 1.31 GiB\nDuration : 2h 9mn\nOverall bit rate : 1 442 Kbps\n\nVideo\nID : 0\nFormat : MPEG-4 Visual\nFormat profile : Simple@L5\nFormat settings, BVOP : No\nFormat settings, QPel : No\nFormat settings, GMC : No warppoints\nFormat settings, Matrix : Default (H.263)\nCodec ID : XVID\nCodec ID/Hint : XviD\nDuration : 2h 9mn\nBit rate : 1 304 Kbps\nWidth : 720 pixels\nHeight : 304 pixels\nDisplay aspect ratio : 2.35:1\nFrame rate : 23.976 fps\nColor space : YUV\nChroma subsampling : 4:2:0\nBit depth : 8 bits\nScan type : Progressive\nCompression mode : Lossy\nBits/(Pixel*Frame) : 0.249\nStream size : 1.18 GiB (90%)\nWriting library : XviD 64\n\nAudio\nID : 1\nFormat : AC-3\nFormat/Info : Audio Coding 3\nMode extension : CM (complete main)\nCodec ID : 2000\nDuration : 2h 9mn\nBit rate mode : Constant\nBit rate : 128 Kbps\nChannel(s) : 2 channels\nChannel positions : Front: L R\nSampling rate : 48.0 KHz\nBit depth : 16 bits\nCompression mode : Lossy\nStream size : 119 MiB (9%)\nAlignment : Split accross interleaves\nInterleave, duration : 42 ms (1.00 video frame)\nInterleave, preload duration : 500 ms\n\n\nPlot:\nPeter Parker finds a clue that might help him understand why his parents disappeared when he was young. His path puts him on a collision course with Dr. Curt Connors, his father's former partner.\n &lt;a href=&quot;\nhttp://imageshack.us/a/img39/8638/vlcsnap2012091620h10m33.png&quot; rel=&quot;nofollow&quot; target=&quot;_NEW&quot;&gt;\nhttp://imageshack.us/a/img39/8638/vlcsnap2012091620h10m33.png&lt;/a&gt; &lt;a href=&quot;\nhttp://imageshack.us/a/img705/2193/vlcsnap2012091620h10m26.png&quot; rel=&quot;nofollow&quot; target=&quot;_NEW&quot;&gt;\nhttp://imageshack.us/a/img705/2193/vlcsnap2012091620h10m26.png&lt;/a&gt; &lt;a href=&quot;\nhttp://imageshack.us/a/img849/3620/vlcsnap2012091620h10m57.png&quot; rel=&quot;nofollow&quot; target=&quot;_NEW&quot;&gt;\nhttp://imageshack.us/a/img849/3620/vlcsnap2012091620h10m57.png&lt;/a&gt;\n","torrent":{"xt":"urn:btih:b038b367f6393b58a1b42597e79118c5b923649f","amp;dn":"The+Amazing+Spiderman+2012+HDTS+XviD+Feel-Free","amp;tr":["udp%3A%2F%2Ftracker.openbittorrent.com%3A80","udp%3A%2F%2Fopen.demonii.com%3A1337","udp%3A%2F%2Ftracker.coppersurfer.tk%3A6969","udp%3A%2F%2Fexodus.desync.com%3A6969"],"infoHash":"b038b367f6393b58a1b42597e79118c5b923649f","infoHashBuffer":{"type":"Buffer","data":[176,56,179,103,246,57,59,88,161,180,37,151,231,145,24,197,185,35,100,159]},"announce":[],"urlList":[]}}